<svg xmlns="http://www.w3.org/2000/svg" width="1536" height="1024" viewBox="0 0 1536 1024" version="1.1">
	<path d="M 422.830 282.503 C 422.556 282.777, 419.782 283.061, 416.666 283.132 C 413.550 283.204, 411 283.654, 411 284.132 C 411 284.609, 410.295 285, 409.434 285 C 406.629 285, 389.515 289.303, 388.948 290.151 C 388.292 291.133, 379.145 294.009, 377 293.908 C 374.514 293.791, 381.289 291.094, 384.191 291.045 C 386.701 291.003, 388.785 289.452, 387.738 288.405 C 387.484 288.151, 383.952 289.145, 379.888 290.615 C 373.041 293.091, 371.291 293.528, 366.857 293.872 C 365.953 293.943, 364.931 294.739, 364.584 295.641 C 364.066 296.993, 364.215 297.067, 365.429 296.059 C 366.240 295.386, 367.626 294.985, 368.509 295.167 C 370.360 295.551, 363.937 298.956, 357 301.268 C 354.525 302.094, 352.607 303.255, 352.738 303.848 C 352.869 304.442, 352.347 304.687, 351.578 304.392 C 349.958 303.770, 345.016 306.129, 340 309.918 C 338.075 311.372, 335.181 313.222, 333.569 314.031 C 331.957 314.839, 326.303 319.550, 321.003 324.500 C 315.704 329.450, 307.738 336.745, 303.302 340.711 C 292.117 350.710, 276.128 372.364, 268.497 387.848 C 241.653 442.316, 241.654 499.319, 268.499 553.173 C 272.914 562.031, 281.282 575, 282.581 575 C 282.769 575, 280.255 569.632, 276.995 563.072 C 271.826 552.669, 266.867 540.664, 267.065 539.035 C 267.101 538.741, 268.685 541.650, 270.586 545.500 C 274.415 553.258, 275.508 555.160, 278.640 559.521 C 279.817 561.159, 280.942 562.950, 281.140 563.500 C 281.338 564.050, 281.828 564.391, 282.228 564.257 C 282.629 564.124, 283.646 565.348, 284.488 566.978 C 285.331 568.607, 286.899 570.411, 287.973 570.986 C 289.230 571.658, 289.700 572.618, 289.293 573.679 C 288.820 574.913, 289.018 575.112, 290.080 574.472 C 291.298 573.738, 291.302 573.860, 290.107 575.332 C 289.342 576.276, 288.946 577.280, 289.229 577.563 C 289.805 578.138, 291.411 576.857, 304.068 565.730 L 312.906 557.961 309.961 553.597 C 291.789 526.672, 283.505 476.987, 291.438 442.500 C 298.472 411.923, 307.853 392.966, 327.565 369.500 C 336.840 358.460, 337.932 357.361, 348.029 348.932 C 366.877 333.194, 390.232 323.022, 420.500 317.368 C 431.823 315.253, 429.199 314.016, 417.500 315.953 C 389.148 320.648, 359.689 332.306, 346 344.247 C 342.669 347.152, 341.001 348.200, 341.028 347.372 C 341.133 344.017, 376.437 323.583, 388 320.184 C 416.785 311.723, 424.363 310.566, 451 310.570 C 484.156 310.575, 503.204 315.006, 532.974 329.641 C 540.963 333.568, 547.637 336.656, 547.805 336.502 C 548.094 336.238, 545.962 334.827, 529.714 324.523 C 525.981 322.156, 518.884 318.761, 513.942 316.979 C 504.668 313.635, 501.412 311.552, 507.200 312.665 C 522.310 315.571, 540.662 324.802, 565 341.737 C 571.474 346.242, 564.175 339.600, 555.181 332.802 C 539.803 321.178, 505.492 303.932, 494.502 302.302 C 492.851 302.057, 488.125 301.030, 484 300.019 C 470.714 296.764, 457.644 294.839, 443.913 294.116 L 430.500 293.410 438.410 292.573 C 454.147 290.906, 473.028 292.344, 487.570 296.317 C 499.797 299.657, 508.565 302.654, 512.723 304.916 C 513.701 305.447, 518.550 307.736, 523.500 310.002 C 528.450 312.268, 533.625 314.866, 535 315.776 C 536.375 316.685, 540.200 318.686, 543.500 320.223 L 549.500 323.017 546.694 320.508 C 533.182 308.427, 499.420 294.907, 469 289.395 L 461.500 288.037 469.104 288.493 C 478.825 289.077, 493.671 291.529, 502 293.928 C 513.981 297.377, 516.011 297.826, 515.438 296.900 C 513.904 294.417, 496.967 288.502, 481 284.873 C 471.965 282.820, 424.449 280.884, 422.830 282.503 M 441 339.560 L 441 352.121 444.750 351.810 L 448.500 351.500 448.781 339.250 L 449.062 327 445.031 327 L 441 327 441 339.560 M 660.500 351.148 C 654.022 354.483, 640.816 362.151, 636.500 365.085 C 634.300 366.581, 624.175 373.313, 614 380.046 C 588.278 397.067, 576.332 405.563, 570.500 410.982 C 567.750 413.538, 563.925 416.793, 562 418.216 C 560.075 419.639, 556.700 422.503, 554.500 424.579 C 550.053 428.777, 548.149 430.360, 522.674 451.034 C 512.870 458.990, 502.735 467.075, 500.152 469 C 491.774 475.244, 476.204 487.860, 475.530 488.951 C 475.169 489.536, 475.744 491.248, 476.809 492.757 C 477.873 494.266, 479.934 497.863, 481.389 500.750 C 482.843 503.637, 484.267 506, 484.552 506 C 486.090 506, 491.854 501.293, 503.504 490.522 C 510.656 483.910, 525.485 470.400, 536.457 460.500 C 547.429 450.600, 557.120 441.825, 557.993 441 C 575.624 424.337, 622.045 384.349, 648.542 363 C 667.284 347.898, 667.796 347.392, 660.500 351.148 M 339.750 409.926 C 333.837 421.414, 329 431.080, 329 431.406 C 329 431.733, 356.337 432.005, 389.750 432.011 L 450.500 432.023 362.500 519.508 C 293.014 588.588, 275.131 606.870, 277.500 606.406 C 280.765 605.767, 315.120 596.120, 343 588.012 C 360.190 583.014, 389.218 575.652, 404 572.541 C 453.529 562.119, 513.295 551.481, 542 547.978 C 546.125 547.475, 556.925 546.158, 566 545.051 C 575.075 543.945, 584.300 543.017, 586.500 542.989 C 589.435 542.953, 590.080 542.693, 588.921 542.015 C 584.397 539.370, 504.464 536.870, 461.500 538.031 C 416.313 539.252, 396.702 542.107, 381.800 549.636 C 376.297 552.416, 377.074 550.853, 383.690 545.834 C 416.360 521.049, 424.997 513.597, 425.012 510.182 C 425.077 495.477, 436.110 483.137, 449.278 483.042 L 455.056 483 477.278 461.203 C 489.500 449.215, 509.850 429.463, 522.500 417.309 C 535.150 405.155, 546.822 393.814, 548.437 392.106 L 551.374 389 450.937 389.020 L 350.500 389.040 339.750 409.926 M 561.500 415.977 C 557.650 418.685, 551.575 422.935, 548 425.423 C 544.425 427.910, 536.742 433.445, 530.926 437.723 C 525.110 442, 512.960 450.858, 503.926 457.407 C 494.892 463.956, 485.250 470.966, 482.500 472.986 C 479.750 475.005, 474.432 478.804, 470.682 481.427 C 466.932 484.051, 464.116 486.449, 464.424 486.757 C 464.954 487.288, 474.328 481.043, 487.500 471.385 C 490.800 468.965, 497.550 464.086, 502.500 460.542 C 507.450 456.998, 519.150 448.459, 528.500 441.567 C 537.850 434.674, 550.549 425.406, 556.720 420.970 C 566.288 414.092, 570.156 410.911, 568.809 411.026 C 568.639 411.041, 565.350 413.269, 561.500 415.977 M 968.894 428.114 C 960.117 431.335, 964.603 445.119, 973.945 443.633 C 982.769 442.229, 984.788 430.865, 976.713 428.050 C 973.198 426.824, 972.391 426.831, 968.894 428.114 M 691.667 428.667 C 691.300 429.033, 691 432.183, 691 435.667 L 691 442 710.250 442.015 C 720.837 442.024, 728.967 442.370, 728.315 442.784 C 727.664 443.198, 718.776 454.761, 708.565 468.480 L 690 493.422 690 499.211 L 690 505 720 505 L 750 505 750 498 L 750 491 731.500 491 C 721.325 491, 713 490.777, 713 490.504 C 713 489.804, 721.246 478.330, 736.022 458.471 C 751.089 438.220, 751 438.373, 751 432.566 L 751 428 721.667 428 C 705.533 428, 692.033 428.300, 691.667 428.667 M 896 434.931 L 896 442 907 442 L 918 442 918 473.500 L 918 505 926.500 505 L 935 505 935 473.500 L 935 442 946.546 442 L 958.091 442 957.796 435.250 L 957.500 428.500 926.750 428.181 L 896 427.863 896 434.931 M 1167 467 L 1167 505 1175 505 L 1183 505 1183 492.500 L 1183 480 1194.374 480 C 1206.835 480, 1212.019 478.749, 1217.789 474.347 C 1229.349 465.530, 1228.600 441.963, 1216.500 433.824 C 1210.414 429.730, 1205.730 429, 1185.557 429 L 1167 429 1167 467 M 1183 454.594 L 1183 467.187 1193.084 466.844 C 1203.031 466.505, 1203.207 466.456, 1206.084 463.234 C 1208.522 460.504, 1209 459.106, 1209 454.707 C 1209 445.236, 1204.424 442, 1191.032 442 L 1183 442 1183 454.594 M 774.500 447.871 C 753.652 453.304, 746.415 482.511, 762.044 498.140 C 772.757 508.852, 797.092 509.046, 807.001 498.499 L 809.342 496.007 805.421 492.545 C 800.990 488.633, 800.252 488.435, 797.443 490.402 C 788.291 496.813, 772.544 492.948, 770.424 483.771 L 769.794 481.042 790.147 480.771 L 810.500 480.500 810.260 475.500 C 809.406 457.671, 800.754 447.957, 785.212 447.377 C 780.970 447.218, 776.150 447.441, 774.500 447.871 M 844.871 449.006 C 842.875 450.061, 840.063 452.325, 838.621 454.039 L 836 457.153 836 452.577 L 836 448 827.500 448 L 819 448 819 476.500 L 819 505 827.500 505 L 836 505 836 487.968 C 836 465.886, 837.955 461, 846.788 461 C 855.708 461, 857 464.284, 857 486.950 L 857 505 865 505 L 873 505 872.994 484.250 C 872.988 461.891, 872.367 457.778, 868.258 452.895 C 863.206 446.891, 852.305 445.078, 844.871 449.006 M 1018.655 448.398 C 1014.216 450.051, 1010 453.676, 1010 455.841 C 1010 458.405, 1008.601 456.070, 1008.425 453.213 C 1008.333 451.721, 1008.200 449.938, 1008.129 449.250 C 1008.038 448.373, 1005.765 448, 1000.500 448 L 993 448 993 476.500 L 993 505 1001 505 L 1009 505 1009 487.565 C 1009 465.348, 1010.649 461, 1019.078 461 C 1027.392 461, 1028.845 465.234, 1028.940 489.750 L 1029 505 1036.750 505.002 L 1044.500 505.003 1044.196 490.919 C 1043.726 469.106, 1046.388 461, 1054.020 461 C 1061.941 461, 1063 464.083, 1063 487.149 L 1063 505 1071 505 L 1079 505 1079 482.657 C 1079 461.204, 1078.907 460.139, 1076.675 455.907 C 1070.977 445.106, 1056.990 443.757, 1047.434 453.086 L 1043.368 457.056 1042.145 454.770 C 1038.796 448.514, 1026.964 445.304, 1018.655 448.398 M 1106.994 447.934 C 1084.878 454.661, 1079.517 487.667, 1098.423 500.695 C 1110.031 508.695, 1130.113 507.986, 1139.250 499.254 C 1142.846 495.818, 1142.710 495.098, 1137.758 491.328 L 1133.591 488.155 1129.465 490.574 C 1120.554 495.796, 1109.465 494.091, 1105.030 486.818 C 1101.463 480.966, 1101.163 481.066, 1123.250 480.771 L 1143.500 480.500 1143.433 473.990 C 1143.267 457.893, 1132.205 447.067, 1116 447.142 C 1112.425 447.158, 1108.372 447.515, 1106.994 447.934 M 1258.500 448.699 C 1255.166 450.498, 1253.515 452.281, 1251.736 456 C 1250.621 458.329, 1250.517 458.141, 1250.217 453.250 L 1249.895 448 1241.948 448 L 1234 448 1234 476.500 L 1234 505 1242 505 L 1250 505 1250.198 500.750 C 1250.306 498.413, 1250.335 494.925, 1250.262 493 C 1249.952 484.903, 1251.869 469.129, 1253.457 466.706 C 1255.493 463.599, 1259.846 461.727, 1265.036 461.727 L 1269 461.727 1269 454.364 L 1269 447 1265.250 447.040 C 1263.188 447.062, 1260.150 447.809, 1258.500 448.699 M 1289.594 448.588 C 1282.744 450.771, 1273.984 459.625, 1271.687 466.688 C 1264.122 489.948, 1281.766 510.680, 1306.406 507.484 C 1323.295 505.293, 1333.530 493.946, 1333.453 477.500 C 1333.393 464.591, 1328.041 455.613, 1317.262 450.340 C 1310.256 446.912, 1297.406 446.099, 1289.594 448.588 M 965 476.500 L 965 505 973 505 L 981 505 981 476.500 L 981 448 973 448 L 965 448 965 476.500 M 775.615 461.088 C 773.007 463.140, 770 467.885, 770 469.950 C 770 470.629, 774.569 471, 782.930 471 L 795.860 471 794.949 467.750 C 792.717 459.791, 781.972 456.088, 775.615 461.088 M 1111.500 459.719 C 1107.944 460.586, 1103 466.837, 1103 470.468 C 1103 470.761, 1108.850 471, 1116 471 C 1129.950 471, 1129.877 471.034, 1127.606 465.599 C 1125.195 459.828, 1119.534 457.762, 1111.500 459.719 M 1295.418 460.969 C 1287.381 464.220, 1283.359 479.794, 1288.522 487.674 C 1294.679 497.070, 1310.294 495.989, 1315.595 485.800 C 1317.741 481.675, 1317.407 471.181, 1315.005 467.241 C 1311.230 461.048, 1302.295 458.187, 1295.418 460.969 M 300.667 473.667 C 300.300 474.033, 300 475.608, 300 477.167 L 300 480 311.500 480 L 323 480 323 476.500 L 323 473 312.167 473 C 306.208 473, 301.033 473.300, 300.667 473.667 M 444.637 488.403 C 435.864 491.670, 430.596 500.434, 431.217 510.729 C 432.398 530.318, 456.706 538.820, 470.136 524.342 C 479.876 513.842, 477.394 496.913, 465.120 490.128 C 459.746 487.157, 450.154 486.349, 444.637 488.403 M 626.146 490.500 C 623.125 510.132, 619.255 525.256, 613.976 538.058 C 610.808 545.741, 605.459 555.598, 603.954 556.529 C 602.980 557.130, 606.956 545.860, 608.021 545 C 608.361 544.725, 609.633 541.350, 610.847 537.500 C 613.133 530.247, 613.474 528.875, 614.452 523 L 615.034 519.500 613.091 523.500 C 612.023 525.700, 611.115 528.071, 611.074 528.770 C 610.929 531.250, 602.110 547.606, 597.200 554.500 C 582.385 575.303, 559.933 596.875, 541.340 608.170 C 499.495 633.592, 444.884 639.608, 400.984 623.632 C 383.751 617.360, 364.176 607.012, 356.945 600.353 C 355.540 599.059, 353.406 598, 352.202 598 C 349.782 598, 319.926 603.503, 313.325 605.166 L 309.151 606.218 312.599 609.666 C 314.496 611.562, 315.742 613.608, 315.369 614.212 C 314.958 614.878, 315.152 615.024, 315.865 614.584 C 317.096 613.823, 324.948 618.994, 331 624.551 C 343.539 636.064, 381.958 653.778, 403.244 657.860 C 424.602 661.956, 428.062 662.311, 449.500 662.607 C 486.891 663.123, 511.222 657.468, 543.500 640.762 C 566.868 628.667, 596.398 601.909, 611.662 579 C 615.264 573.593, 616.748 570.760, 614.574 573.441 C 612.778 575.656, 612.492 574.818, 614.050 571.906 C 614.628 570.827, 615.523 570.205, 616.039 570.524 C 616.555 570.843, 616.707 570.400, 616.377 569.539 C 616.046 568.679, 616.229 567.418, 616.782 566.737 C 618.846 564.197, 622.198 557.520, 624.561 551.242 C 627.339 543.861, 627.614 542.219, 625.382 546.338 C 622.996 550.741, 622.736 548.850, 625.018 543.691 C 628.872 534.980, 634.463 500.978, 631.768 502.643 C 631.346 502.904, 631 503.847, 631 504.738 C 631 505.629, 630.574 507.740, 630.054 509.429 C 629.533 511.118, 627.938 517.113, 626.509 522.750 C 621.001 544.474, 610.035 568.218, 598.426 583.556 C 594.240 589.086, 580.909 602.500, 579.598 602.500 C 579.458 602.500, 582.121 599.758, 585.516 596.406 C 599.065 583.031, 614.908 552.573, 621.490 527.247 C 624.327 516.332, 627.324 496.220, 626.712 492.204 C 626.485 490.717, 626.230 489.950, 626.146 490.500 M 448.415 497.421 C 438.741 501.634, 437.483 514.666, 446.237 520.003 C 460.850 528.913, 475.178 508.046, 460.833 498.745 C 456.170 495.721, 453.077 495.392, 448.415 497.421 M 448.646 505.452 C 443.712 510.025, 447.212 517.714, 453.745 516.654 C 460.433 515.569, 462.264 510.173, 457.545 505.455 C 454.441 502.350, 451.994 502.349, 448.646 505.452 M 783.455 539.455 C 776.874 546.035, 784.754 556.413, 792.986 552.008 C 795.590 550.614, 797.430 544.672, 796.054 542.100 C 793.227 536.819, 787.328 535.581, 783.455 539.455 M 818 543 C 818 547.667, 818.444 549.444, 820 551 C 822.499 553.499, 827.161 553.584, 829.345 551.171 C 831.605 548.674, 831.733 537, 829.500 537 C 828.332 537, 828 538.337, 828 543.031 C 828 553.251, 821.745 552.897, 821.200 542.646 C 820.981 538.518, 820.510 537, 819.450 537 C 818.344 537, 818 538.425, 818 543 M 840.455 539.455 C 834.942 544.967, 838.948 553.312, 846.862 552.800 C 851.438 552.504, 851.504 552.450, 851.810 548.750 C 852.112 545.104, 852.029 545.001, 848.810 545.032 C 845.844 545.060, 845.682 545.202, 847.250 546.392 C 851.593 549.689, 847.741 552.608, 843.223 549.443 C 838.136 545.880, 841.466 539.339, 847.848 540.360 C 852.319 541.075, 853.024 540.498, 850.250 538.392 C 847.459 536.273, 843.170 536.739, 840.455 539.455 M 862.364 538.170 C 859.056 539.771, 857.713 543.600, 859.044 547.634 C 861.949 556.437, 874.455 554.326, 874.455 545.032 C 874.455 538.504, 868.571 535.164, 862.364 538.170 M 881.667 537.667 C 881.300 538.033, 881 541.633, 881 545.667 L 881 553 886.583 553 C 893.010 553, 893.896 550.716, 887.673 550.190 C 882.430 549.747, 882.276 546, 887.500 546 C 891.907 546, 892.115 544.235, 887.758 543.813 C 882.886 543.342, 882.595 540, 887.427 540 C 889.936 540, 891 539.553, 891 538.500 C 891 536.949, 883.091 536.242, 881.667 537.667 M 931 544.870 L 931 553 934.566 553 C 940.907 553, 943.960 550.524, 943.985 545.361 C 944.008 540.607, 941.232 537.893, 935.711 537.271 L 931 536.740 931 544.870 M 964.656 538.133 C 961.350 540.054, 959.712 545.542, 961.444 548.892 C 964.618 555.029, 973.300 554.519, 975.984 548.038 C 978.851 541.118, 971.132 534.368, 964.656 538.133 M 1014.105 539.177 C 1013.609 540.455, 1012.258 543.879, 1011.102 546.787 C 1008.600 553.079, 1008.608 553, 1010.465 553 C 1011.270 553, 1012.411 552.100, 1013 551 C 1013.624 549.833, 1015.094 549, 1016.527 549 C 1017.900 549, 1019.534 549.882, 1020.232 551 C 1021.615 553.214, 1024.043 553.708, 1023.924 551.750 C 1023.882 551.063, 1022.641 547.581, 1021.167 544.012 C 1018.260 536.977, 1015.651 535.191, 1014.105 539.177 M 1078 545 C 1078 551.444, 1078.292 553, 1079.500 553 C 1080.633 553, 1081 551.778, 1081 548 C 1081 541.767, 1081.672 541.770, 1085.758 548.018 C 1090.601 555.426, 1092 554.749, 1092 545 C 1092 538.684, 1091.695 537, 1090.552 537 C 1089.511 537, 1089.020 538.473, 1088.802 542.250 L 1088.500 547.500 1085.259 542.250 C 1080.155 533.981, 1078 534.797, 1078 545 M 1160.455 539.455 C 1155.428 544.481, 1158.813 553.014, 1165.823 552.985 C 1170.589 552.965, 1171.624 552.195, 1172.189 548.250 C 1172.640 545.098, 1172.546 545.001, 1169.077 545.030 C 1166.162 545.055, 1165.824 545.249, 1167.250 546.080 C 1169.398 547.331, 1169.532 549.858, 1167.492 550.641 C 1165.206 551.519, 1161 548.297, 1161 545.668 C 1161 541.278, 1163.214 539.619, 1168.042 540.391 C 1172.369 541.083, 1172.380 541.077, 1170.539 539.043 C 1167.999 536.237, 1163.488 536.421, 1160.455 539.455 M 1179 545 L 1179 553 1184 553 C 1187.778 553, 1189 552.633, 1189 551.500 C 1189 550.452, 1187.944 550, 1185.500 550 C 1182.667 550, 1182 549.619, 1182 548 C 1182 546.453, 1182.667 546, 1184.941 546 C 1186.559 546, 1188.160 545.550, 1188.500 545 C 1188.868 544.405, 1187.677 544, 1185.559 544 C 1182.667 544, 1182 543.625, 1182 542 C 1182 540.381, 1182.667 540, 1185.500 540 C 1187.944 540, 1189 539.548, 1189 538.500 C 1189 537.367, 1187.778 537, 1184 537 L 1179 537 1179 545 M 1196 544.927 C 1196 551.436, 1196.291 553, 1197.500 553 C 1198.656 553, 1199.008 551.680, 1199.033 547.250 L 1199.067 541.500 1202.682 547.250 C 1208.089 555.848, 1210 555.260, 1210 545 C 1210 538.678, 1209.696 537, 1208.550 537 C 1207.492 537, 1207.019 538.511, 1206.800 542.586 L 1206.500 548.171 1203 542.836 C 1197.578 534.573, 1196 535.044, 1196 544.927 M 1251.861 538.937 C 1248.879 541.385, 1250.013 543.700, 1255.481 546.324 C 1258.885 547.958, 1259.122 548.307, 1257.757 549.672 C 1256.573 550.856, 1255.777 550.951, 1254.182 550.098 C 1251.415 548.617, 1250 548.717, 1250 550.393 C 1250 553.261, 1257.820 554.037, 1260.429 551.429 C 1263.410 548.447, 1262.200 545.933, 1256.678 543.633 C 1252.037 541.701, 1252.663 539.521, 1257.627 540.327 C 1261.325 540.927, 1262.116 539.668, 1259.066 538.035 C 1256.260 536.534, 1254.525 536.751, 1251.861 538.937 M 691 544 C 691 544.641, 700.167 545, 716.500 545 C 732.833 545, 742 544.641, 742 544 C 742 543.359, 732.833 543, 716.500 543 C 700.167 543, 691 543.359, 691 544 M 699 585.430 C 699 594.255, 700.759 595.709, 701.200 587.250 L 701.500 581.500 703.387 587.250 C 705.942 595.036, 707.827 594.537, 709.433 585.648 C 710.327 580.702, 711.242 581.634, 711.387 587.635 C 711.454 590.413, 712.010 592.501, 712.750 592.748 C 713.678 593.059, 714 591.193, 714 585.514 C 714 578.276, 713.885 577.878, 711.874 578.180 C 710.413 578.400, 709.189 579.909, 707.966 583 C 706.908 585.674, 706 586.891, 705.729 586 C 705.478 585.175, 704.865 583.150, 704.366 581.500 C 703.767 579.518, 702.703 578.392, 701.230 578.180 C 699.092 577.874, 699 578.172, 699 585.430 M 719.678 585.445 C 717.314 592.476, 717.263 593, 718.952 593 C 719.950 593, 720.984 592.171, 721.249 591.157 C 721.575 589.910, 722.501 589.398, 724.115 589.574 C 725.427 589.717, 726.837 589.871, 727.250 589.917 C 727.663 589.962, 728 590.675, 728 591.500 C 728 592.325, 728.727 593, 729.617 593 C 731.355 593, 731.391 593.228, 728.205 584 C 725.256 575.458, 722.901 575.857, 719.678 585.445 M 797 585.500 C 797 591.500, 797.300 593, 798.500 593 C 799.596 593, 800.004 591.854, 800.015 588.750 C 800.024 586.413, 800.454 583.831, 800.971 583.013 C 801.735 581.805, 801.887 581.899, 801.779 583.513 C 801.535 587.184, 803.104 593.132, 804.218 592.761 C 804.825 592.558, 805.942 590.264, 806.701 587.662 C 808.396 581.850, 809.940 582.349, 809.249 588.484 C 808.830 592.200, 809.029 593, 810.370 593 C 811.732 593, 812 591.766, 812 585.500 C 812 578.640, 811.827 578, 809.979 578 C 807.919 578, 806.719 579.985, 805.446 585.500 C 804.703 588.721, 804.666 588.672, 803.015 582.250 C 802.102 578.697, 801.519 578, 799.461 578 C 797.065 578, 797 578.198, 797 585.500 M 817 585.500 C 817 591.346, 817.316 593, 818.434 593 C 819.254 593, 820.002 591.824, 820.184 590.250 C 820.448 587.952, 821.075 587.418, 824 587 C 831.171 585.976, 828.450 578, 820.929 578 L 817 578 817 585.500 M 834 580 C 829.475 584.525, 832.735 593, 839 593 C 843.075 593, 846 589.866, 846 585.500 C 846 581.134, 843.075 578, 839 578 C 837.333 578, 835.111 578.889, 834 580 M 869 585.500 C 869 591.374, 869.313 593, 870.445 593 C 871.460 593, 871.981 591.585, 872.195 588.250 L 872.500 583.500 875.345 588.250 C 879.861 595.789, 882 594.905, 882 585.500 C 882 579.500, 881.700 578, 880.500 578 C 879.365 578, 878.985 579.278, 878.938 583.250 L 878.876 588.500 876.688 584 C 874.253 578.992, 873.306 578.038, 870.750 578.015 C 869.238 578.002, 869 579.018, 869 585.500 M 890.479 579.250 C 889.312 582.439, 886 592.350, 886 592.657 C 886 593.619, 889.009 592.820, 889.700 591.675 C 891.172 589.235, 893.963 588.934, 895.750 591.021 C 897.893 593.524, 900.465 593.679, 899.567 591.250 C 895.392 579.956, 894.382 578, 892.724 578 C 891.741 578, 890.731 578.563, 890.479 579.250 M 938.073 580.635 C 932.471 587.756, 940.491 596.547, 947.873 591.377 C 949.928 589.937, 950.115 589.229, 949.527 585.127 C 948.467 577.727, 942.271 575.298, 938.073 580.635 M 955 585.500 C 955 591.500, 955.300 593, 956.500 593 C 957.500 593, 958 592, 958 590 C 958 586.168, 959.618 586.165, 961.797 589.994 C 964.424 594.611, 966.966 594.213, 964.827 589.520 C 963.930 587.551, 963.930 586.670, 964.827 585.773 C 968.372 582.228, 964.967 578, 958.566 578 L 955 578 955 585.500 M 972 580 C 967.510 584.490, 970.729 593, 976.918 593 C 981.781 593, 983 592.077, 983 588.393 C 983 585.440, 982.675 585, 980.500 585 C 977.975 585, 977.158 586.361, 979 587.500 C 980.480 588.415, 980.214 589.981, 978.463 590.653 C 976.568 591.380, 973 588.313, 973 585.956 C 973 585.002, 973.862 583.159, 974.915 581.861 L 976.830 579.500 979.310 581.825 C 982.284 584.614, 984.167 582.947, 981.443 579.937 C 979.173 577.428, 974.541 577.459, 972 580 M 989.797 585.465 C 987.773 591.108, 987.432 593, 988.440 593 C 989.180 593, 990.045 592.325, 990.362 591.500 C 990.700 590.618, 992.200 590, 994 590 C 995.800 590, 997.300 590.618, 997.638 591.500 C 997.955 592.325, 999.025 593, 1000.017 593 C 1001.665 593, 1001.581 592.376, 999.042 585.750 C 995.156 575.612, 993.352 575.557, 989.797 585.465 M 1005 585.430 C 1005 591.492, 1005.299 593, 1006.500 593 C 1007.611 593, 1008 591.833, 1008 588.500 C 1008 582.791, 1009.023 582.810, 1011.821 588.569 C 1015.203 595.530, 1017.457 594.433, 1017.649 585.732 C 1017.730 582.025, 1017.393 578.743, 1016.899 578.437 C 1015.153 577.358, 1014.153 579.046, 1014.928 581.763 C 1016.594 587.598, 1014.560 588.665, 1011.810 583.399 C 1010.158 580.238, 1008.496 578.387, 1007.125 578.180 C 1005.117 577.879, 1005 578.279, 1005 585.430 M 1049.509 579.250 C 1049.273 579.938, 1048.162 582.975, 1047.040 586 C 1045.919 589.025, 1045.001 591.837, 1045.001 592.250 C 1045 593.742, 1047.952 592.957, 1048.883 591.219 C 1050.186 588.785, 1053.766 588.693, 1055.033 591.062 C 1056.373 593.565, 1059.514 593.735, 1058.499 591.250 C 1058.106 590.288, 1056.891 586.913, 1055.800 583.750 C 1053.855 578.111, 1050.678 575.839, 1049.509 579.250 M 1083.546 579.250 C 1083.331 579.938, 1082.220 583.104, 1081.077 586.288 C 1079.935 589.471, 1079 592.283, 1079 592.538 C 1079 593.835, 1081.680 592.742, 1082.768 591 C 1083.455 589.900, 1084.684 589, 1085.500 589 C 1086.316 589, 1087.545 589.900, 1088.232 591 C 1089.411 592.887, 1092 593.795, 1092 592.321 C 1092 588.708, 1087.343 578, 1085.772 578 C 1084.763 578, 1083.761 578.563, 1083.546 579.250 M 1098 580 C 1092.210 585.790, 1099.890 596.715, 1106.600 592.235 C 1112.584 588.239, 1109.995 578, 1103 578 C 1101.333 578, 1099.111 578.889, 1098 580 M 1131 585.500 C 1131 590.985, 1131.349 593, 1132.299 593 C 1133.187 593, 1133.473 591.928, 1133.203 589.617 C 1132.453 583.188, 1133.520 582.272, 1135.379 587.750 C 1137.560 594.177, 1138.632 594.348, 1140.104 588.500 C 1140.728 586.025, 1141.634 584, 1142.119 584 C 1142.603 584, 1143 586.025, 1143 588.500 C 1143 595.284, 1144.977 593.905, 1145.150 587 C 1145.233 583.700, 1145.345 580.438, 1145.400 579.750 C 1145.455 579.063, 1144.531 578.362, 1143.346 578.193 C 1141.626 577.948, 1140.948 578.651, 1139.976 581.693 C 1138.464 586.421, 1137 588.169, 1137 585.247 C 1137 581.782, 1134.829 578, 1132.839 578 C 1131.217 578, 1131 578.885, 1131 585.500 M 1153.509 579.250 C 1153.273 579.938, 1152.162 582.975, 1151.040 586 C 1149.919 589.025, 1149.001 591.837, 1149.001 592.250 C 1149 593.636, 1151.780 593.016, 1152.362 591.500 C 1152.692 590.640, 1154.185 590, 1155.862 590 C 1157.539 590, 1159.032 590.640, 1159.362 591.500 C 1159.678 592.325, 1160.608 593, 1161.428 593 C 1162.646 593, 1162.436 591.630, 1160.275 585.500 C 1158.275 579.829, 1157.180 578, 1155.784 578 C 1154.768 578, 1153.744 578.563, 1153.509 579.250 M 1197 585.500 C 1197 591.500, 1197.300 593, 1198.500 593 C 1199.548 593, 1200 591.944, 1200 589.500 C 1200 587.575, 1200.348 586, 1200.773 586 C 1201.198 586, 1202.393 587.575, 1203.430 589.500 C 1205.293 592.959, 1206.098 593.568, 1207.266 592.401 C 1208.447 591.220, 1203.835 584, 1201.899 584 C 1199.630 584, 1199.354 581.462, 1201.532 580.626 C 1202.550 580.235, 1203.380 580.870, 1204.007 582.519 C 1205.193 585.637, 1207 585.747, 1207 582.700 C 1207 579.403, 1205.149 578, 1200.800 578 L 1197 578 1197 585.500 M 1280.942 584.963 C 1278.520 592.639, 1278.868 594.592, 1282.050 591.177 C 1284.576 588.466, 1286.613 588.407, 1288.232 591 C 1289.645 593.263, 1292 593.682, 1292 591.670 C 1292 588.176, 1287.101 578.485, 1285.187 578.192 C 1283.496 577.933, 1282.821 579.009, 1280.942 584.963 M 1296 585.500 L 1296 593 1300 593 C 1305.091 593, 1308 590.299, 1308 585.573 C 1308 581.295, 1304.243 578, 1299.365 578 L 1296 578 1296 585.500 M 1314.189 580.039 C 1309.442 584.461, 1312.611 593, 1319 593 C 1325.514 593, 1328.327 585.236, 1323.545 580.455 C 1320.557 577.466, 1317.114 577.313, 1314.189 580.039 M 440.536 593.750 C 440.600 596.362, 440.730 602.015, 440.826 606.310 L 441 614.121 444.750 613.810 L 448.500 613.500 448.781 601.250 L 449.062 589 444.741 589 L 440.420 589 440.536 593.750" stroke="none" fill="black" fill-rule="evenodd"/>
</svg>