<svg xmlns="http://www.w3.org/2000/svg" viewBox="0 0 64 64" role="img" aria-label="Cloudflare">
  <path fill="#f38020" d="M45.8 30.2c-.7-7-6.5-12.4-13.7-12.4-6 0-11.3 3.9-13.1 9.5a10.2 10.2 0 0 0-9 10.1c0 .5 0 1 .1 1.6h35.3c4.2 0 7.6-3.4 7.6-7.6 0-4-3-7.2-7-7.6"/>
  <path fill="#faae40" d="M18.8 41.4c.5-2.5 2.7-4.3 5.2-4.3h26.1c1.7 0 3 1.3 3 3 0 1.7-1.3 3-3 3H18.2c-.2-.6-.1-1.1.6-1.7"/>
  <path fill="#faae40" d="M14.5 43.1c.4-1.9 2-3.2 3.9-3.2h6.8c1.3 0 2.4 1.1 2.4 2.4 0 1.3-1.1 2.4-2.4 2.4H14.3c0-.5 0-1 .2-1.6"/>
</svg>
