<svg xmlns="http://www.w3.org/2000/svg" viewBox="0 0 64 64" role="img" aria-label="Python">
  <path fill="#3776ab" d="M32.3 10c-10 0-9.4 4.4-9.4 4.4v4.6h9.6v1.5H19c-5.7 0-10.7 3.4-12.3 9.9-1.9 7.4-2 12 0 19.7 1.5 5.7 5.1 9.9 10.8 9.9h7v-9.2s-.4-11 10.8-11h18c0 0 10.1.2 10.1-9.8V20.2C63.4 20.2 64.9 10 48.4 10zm-5.3 5.8c1.7 0 3 1.4 3 3 0 1.7-1.4 3-3 3-1.7 0-3-1.4-3-3s1.4-3 3-3"/>
  <path fill="#ffd43b" d="M31.7 54c10 0 9.4-4.4 9.4-4.4V45h-9.6v-1.5H45c5.7 0 10.7-3.4 12.3-9.9 1.9-7.4 2-12 0-19.7-1.5-5.7-5.1-9.9-10.8-9.9h-7v9.2s.4 11-10.8 11h-18S.6 24.1.6 34c0 9.8-1.5 20 15 20zm5.3-5.8c-1.7 0-3-1.4-3-3 0-1.7 1.4-3 3-3 1.7 0 3 1.4 3 3 0 1.7-1.4 3-3 3"/>
</svg>
